# xmcd
#
# Track frame offsets: 
#        150
#        14462
#        32564
#        50690
#        70469
#        82530
#        103117
#        118512
#        136346
#        152709
#        169962
#        189340
#
# Disc length: 2705 seconds
#
# Revision: 5
# Processed by: cddbd v1.5.2PL0 Copyright (c) Steve Scherf et al.
# Submitted via: ExactAudioCopy v0.95b4
#
DISCID=980a8f0c
DTITLE=Chris LeDoux - One Road Man
DYEAR=1998
DGENRE=Country
TTITLE0=One Tonight
TTITLE1=Runaway Love
TTITLE2=The Borderline
TTITLE3=Old Paint
TTITLE4=The Fever
TTITLE5=Bang A Drum (Featuring Jon Bon Jovi)
TTITLE6=Ole Slew Foot
TTITLE7=One Ride In Vegas
TTITLE8=Sometimes You've Just Gotta Ride
TTITLE9=Life Is A Highway
TTITLE10=Caballo Diablo
TTITLE11=One Road Man
EXTD=YEAR: 1998
EXTT0=
EXTT1=
EXTT2=
EXTT3=
EXTT4=
EXTT5=
EXTT6=
EXTT7=
EXTT8=
EXTT9=
EXTT10=
EXTT11=
PLAYORDER=
